<?xml version="1.0" standalone="no"?>
<!DOCTYPE svg PUBLIC "-//W3C//DTD SVG 20010904//EN"
 "http://www.w3.org/TR/2001/REC-SVG-20010904/DTD/svg10.dtd">
<svg version="1.0" xmlns="http://www.w3.org/2000/svg"
 width="1067.000000pt" height="812.000000pt" viewBox="0 0 1067.000000 812.000000"
 preserveAspectRatio="xMidYMid meet">

<g transform="translate(0.000000,812.000000) scale(0.100000,-0.100000)"
fill="#000000" stroke="none">
<path d="M3811 8057 c-8 -11 -24 -352 -55 -1216 -24 -661 -46 -1204 -49 -1208
-3 -3 -39 3 -79 12 -533 130 -1272 799 -1698 1539 -116 202 -218 448 -250 601
-19 94 -38 105 -109 58 -45 -29 -46 -33 -56 -173 -18 -272 -166 -636 -368
-909 -288 -387 -664 -647 -1084 -751 -33 -8 -44 -17 -49 -35 -7 -27 10 -55 31
-55 7 0 18 -6 24 -14 6 -7 33 -19 59 -26 197 -53 400 -258 542 -545 150 -305
214 -590 214 -955 0 -256 -26 -416 -100 -613 -30 -79 -27 -138 9 -162 19 -12
32 -11 107 11 187 55 304 69 580 69 195 0 281 -5 365 -18 228 -36 469 -100
658 -173 170 -66 429 -200 582 -302 199 -133 294 -210 450 -367 267 -267 447
-556 536 -863 18 -59 36 -113 42 -119 13 -17 52 -16 66 0 6 8 23 12 39 9 21
-3 39 6 77 38 59 48 139 75 193 65 320 -60 622 -729 756 -1672 13 -89 29 -169
36 -178 16 -20 84 -20 100 0 7 9 23 89 36 178 105 741 315 1324 563 1560 61
58 135 101 193 112 54 10 134 -17 193 -65 38 -32 56 -41 77 -38 16 3 33 -1 39
-9 14 -16 53 -17 66 -1 6 7 24 61 42 120 89 307 269 596 536 863 156 157 251
234 450 367 153 102 412 236 582 302 189 73 430 137 658 173 84 13 170 18 365
18 276 0 393 -14 580 -69 75 -22 88 -23 107 -11 36 24 39 83 9 162 -74 197
-100 357 -100 613 0 365 64 650 214 955 142 287 345 492 542 545 26 7 53 19
59 26 6 8 17 14 24 14 21 0 38 28 31 55 -5 18 -16 27 -49 35 -419 104 -796
365 -1084 751 -202 273 -350 637 -368 909 -10 140 -11 144 -56 173 -71 47 -90
36 -109 -58 -32 -155 -141 -417 -255 -612 -437 -744 -1163 -1399 -1693 -1528
-40 -9 -76 -15 -79 -12 -3 4 -25 547 -49 1208 -31 864 -47 1205 -55 1216 -7 8
-25 13 -42 11 -27 -3 -59 -43 -312 -391 -156 -214 -287 -393 -292 -398 -6 -6
-32 3 -72 25 -146 83 -476 178 -682 197 -86 8 -152 8 -238 0 -206 -19 -536
-114 -682 -197 -37 -21 -66 -31 -71 -26 -5 5 -137 184 -292 398 -254 349 -286
389 -313 392 -17 2 -35 -3 -42 -11z m1027 -1533 c51 -36 79 -148 63 -258 -12
-82 -39 -123 -87 -132 -74 -14 -112 48 -113 187 -1 94 21 171 56 198 31 25 51
26 81 5z m1065 -5 c35 -27 57 -104 56 -198 -1 -139 -39 -201 -113 -187 -48 9
-75 50 -87 132 -16 110 12 222 63 258 30 21 50 20 81 -5z m-845 -923 c66 -43
146 -60 272 -60 126 0 206 17 272 60 43 28 61 30 78 9 58 -69 -139 -159 -350
-159 -211 0 -408 90 -350 159 17 21 35 19 78 -9z"/>
</g>
</svg>
