<?xml version="1.0" standalone="no"?>
<!DOCTYPE svg PUBLIC "-//W3C//DTD SVG 20010904//EN"
 "http://www.w3.org/TR/2001/REC-SVG-20010904/DTD/svg10.dtd">
<svg version="1.0" xmlns="http://www.w3.org/2000/svg"
 width="1423.000000pt" height="1423.000000pt" viewBox="0 0 1423.000000 1423.000000"
 preserveAspectRatio="xMidYMid meet">
<metadata>
Created by potrace 1.14, written by Peter Selinger 2001-2017
</metadata>
<g transform="translate(0.000000,1423.000000) scale(0.100000,-0.100000)"
fill="#000000" stroke="none">
<path d="M5093 12452 c-13 -8 -19 -56 -28 -242 -3 -63 -7 -153 -10 -200 -2
-47 -7 -157 -10 -245 -3 -88 -8 -203 -10 -255 -4 -91 -8 -195 -20 -525 -3 -82
-7 -202 -10 -265 -8 -201 -15 -391 -20 -530 -3 -74 -7 -187 -10 -250 -2 -63
-7 -185 -11 -270 -3 -85 -7 -182 -9 -215 -1 -33 -4 -101 -6 -152 l-3 -92 -40
6 c-63 8 -199 50 -295 89 -352 145 -747 429 -1131 814 -205 204 -243 245 -371
400 -431 518 -741 1071 -860 1530 -17 67 -37 123 -48 134 -19 19 -20 19 -76
-8 -80 -40 -88 -55 -99 -182 -16 -181 -22 -217 -56 -356 -25 -98 -75 -252
-110 -333 -31 -75 -157 -324 -181 -360 -16 -23 -29 -45 -29 -48 0 -16 -145
-216 -234 -322 -78 -94 -302 -315 -396 -389 -161 -129 -456 -307 -585 -354
-16 -6 -55 -20 -85 -32 -59 -23 -170 -59 -262 -84 -62 -18 -78 -40 -64 -88 7
-25 77 -63 176 -97 143 -49 219 -100 360 -241 94 -94 111 -114 186 -225 176
-259 294 -544 378 -915 6 -26 15 -83 22 -135 3 -27 8 -59 10 -70 11 -53 19
-219 19 -395 0 -355 -21 -500 -112 -773 -50 -151 -54 -217 -18 -257 25 -27 45
-26 203 15 243 63 386 79 722 79 184 0 412 -9 460 -18 14 -3 67 -12 118 -21
77 -13 144 -28 324 -70 125 -29 423 -124 500 -159 18 -8 67 -29 108 -46 108
-47 320 -154 433 -222 55 -32 101 -58 103 -58 6 0 140 -89 244 -164 170 -121
272 -208 445 -381 377 -378 581 -709 735 -1190 41 -130 52 -146 91 -141 17 2
36 9 42 15 6 6 27 11 47 11 28 0 54 12 109 51 136 95 235 109 357 49 77 -38
97 -52 179 -136 186 -189 352 -520 505 -1008 24 -77 116 -434 124 -484 4 -18
8 -47 11 -64 3 -18 10 -49 15 -68 5 -19 12 -51 15 -70 3 -19 10 -60 16 -90 10
-59 48 -303 55 -360 9 -68 34 -145 51 -157 22 -17 84 -17 106 0 16 11 36 85
52 192 3 22 10 69 16 105 5 36 12 76 14 90 4 31 18 113 20 120 1 3 5 28 9 55
13 80 63 313 96 446 17 68 33 131 35 139 49 207 175 547 275 747 81 160 101
194 180 298 97 128 185 204 295 256 102 49 223 24 348 -70 39 -30 63 -41 88
-41 19 0 44 -7 57 -15 12 -9 34 -14 49 -12 32 4 51 43 101 207 141 454 422
869 858 1264 113 102 125 113 209 176 95 71 275 195 330 226 11 6 64 37 117
68 123 71 456 234 568 276 134 51 325 111 460 145 144 35 206 48 335 71 50 8
101 17 115 20 135 23 778 23 901 -1 13 -3 44 -8 69 -11 24 -3 105 -22 180 -41
182 -47 176 -46 205 -39 55 14 66 109 25 221 -73 202 -108 365 -125 580 -11
140 -6 476 10 598 21 162 21 162 51 302 71 326 236 699 412 929 71 93 165 191
247 258 80 65 226 141 317 163 15 4 32 13 39 21 6 8 18 14 25 14 22 0 54 38
54 63 0 33 -25 51 -100 72 -179 50 -265 83 -436 166 -657 318 -1189 957 -1399
1681 -20 68 -38 139 -41 158 -3 19 -8 49 -11 65 -7 33 -7 33 -17 150 -14 158
-22 181 -79 216 -99 62 -106 56 -156 -134 -33 -123 -38 -138 -103 -302 -120
-303 -328 -660 -568 -974 -25 -33 -56 -74 -70 -92 -159 -210 -483 -558 -679
-729 -41 -36 -86 -76 -100 -89 -14 -13 -42 -35 -61 -50 -19 -14 -37 -29 -40
-32 -3 -3 -45 -36 -95 -73 -49 -37 -97 -73 -105 -79 -142 -109 -451 -276 -622
-335 -99 -35 -230 -64 -240 -54 -7 8 -16 164 -33 612 -3 85 -8 202 -10 260 -2
58 -7 179 -10 270 -3 91 -7 210 -10 265 -2 55 -7 172 -10 260 -18 503 -33 885
-40 1045 -13 262 -16 321 -21 410 -3 52 -10 101 -16 107 -6 7 -23 13 -38 13
-45 0 -95 -62 -555 -695 -216 -298 -266 -360 -283 -356 -9 1 -51 20 -92 41
-223 115 -636 231 -900 255 -72 6 -254 6 -305 0 -102 -12 -137 -18 -230 -37
-229 -46 -486 -129 -649 -209 -54 -27 -106 -49 -115 -49 -9 0 -34 24 -56 53
-21 28 -43 57 -47 62 -5 6 -42 55 -82 110 -489 672 -530 728 -592 792 -31 32
-65 41 -91 25z m1362 -2054 c15 -12 39 -47 53 -77 35 -78 42 -250 12 -331 -27
-75 -56 -102 -118 -108 -47 -4 -51 -3 -78 32 -38 48 -52 107 -52 223 -1 210
88 336 183 261z m1418 -8 c90 -79 100 -403 15 -482 -55 -51 -141 -29 -177 45
-61 128 -41 349 39 429 46 47 77 49 123 8z m-1014 -1277 c61 -19 135 -27 256
-27 169 0 242 15 350 73 75 41 93 42 114 10 45 -73 -117 -167 -334 -195 -69
-9 -226 -9 -270 -1 -16 3 -47 8 -68 11 -55 9 -156 44 -205 72 -73 43 -94 105
-43 130 20 10 32 7 89 -24 36 -19 86 -41 111 -49z"/>
</g>
</svg>
